<?xml version="1.0"?>
<svg xmlns="http://www.w3.org/2000/svg" viewBox="0 0 344.97 369.41" width="250" height="250"><defs><style>.cls-1{fill:#5468ff;}</style></defs><title>logo-frontman-blue</title><g id="Layer_2" data-name="Layer 2"><g id="Layer_1-2" data-name="Layer 1"><path class="cls-1" d="M15.36,175.35q5.2-1.64,10.72-3.16L22,147.43H322.24l-4.12,24.76q5.5,1.51,10.72,3.16l5.41-32.55a5.55,5.55,0,0,0-5.47-6.46H243.51L238.92,0l-8.3,26a16.68,16.68,0,0,1-22.41,10.29s-24.75-8.55-38.62-8.55S131,36.28,131,36.28A16.69,16.69,0,0,1,108.56,26L100.27,0,95.66,136.34H15.42A5.55,5.55,0,0,0,10,142.8Zm214.22-72-19.2,17.26a16.15,16.15,0,0,1-19.68,1.48l-11.28-7.41Zm-69.82,11.33-11.28,7.41a16.15,16.15,0,0,1-19.68-1.48l-19.2-17.26Z"></path><path class="cls-1" d="M50.79,320.77l-6.72-40.41q-5.52,1.25-10.81,2.6l7.15,43a5.54,5.54,0,0,0,3.85,4.39l92.07,28.15-6.74-13.66Z"></path><path class="cls-1" d="M293.42,320.77l-79.77,24.38L206.9,358.8l93-28.44a5.54,5.54,0,0,0,3.85-4.39l7.15-43q-5.28-1.36-10.8-2.6Z"></path><path class="cls-1" d="M147.35,302V259.67q-6.36.34-12.7.85-5.13,13.38-10.23,26.88l-.55.05q-5.13-12.42-10.24-24.72-6.31.81-12.62,1.81v42.28c3.29-.52,6.58-1,9.88-1.45V278.68l.52-.08q4.71,11.14,9.41,22.37c2.22-.25,4.43-.48,6.65-.7q4.69-12.22,9.4-24.34l.53,0v26.69Q142.37,302.21,147.35,302Z"></path><path class="cls-1" d="M196.14,302.08Q189,280.52,181.9,259.21q-6.6-.16-13.19-.14-7.12,21.17-14.23,42.56c3.57-.13,7.13-.21,10.7-.25l2.73-9.32q6.93,0,13.84.14c.88,3.12,1.77,6.23,2.65,9.36Q190.27,301.74,196.14,302.08ZM170,284.32q2.33-7.86,4.64-15.71h.56q2.28,7.89,4.56,15.81Q174.84,284.32,170,284.32Z"></path><path class="cls-1" d="M213.44,279.39l.56.06q8.82,12.87,17.63,26.11c2.83.39,5.65.81,8.48,1.26V264.54q-5.07-.8-10.15-1.49v23.79l-.55-.07q-8.78-13.06-17.58-25.78-4.29-.4-8.59-.72v42.28q5.1.38,10.2.87Z"></path><path class="cls-1" d="M44.44,218.83q-13.51,3.18-26.9,7V209.81q14.75-4.26,29.66-7.69V187.71Q23.39,193.2,0,200.79v70.46q8.73-2.83,17.54-5.38V239.6q13.38-3.87,26.9-7Z"></path><path class="cls-1" d="M117.8,199.4c0-14.52-10-22.39-26.5-20q-15.57,2.29-31,5.46v70.46q8.92-1.83,17.91-3.37V227.3c3.09-.53,6.19-1,9.3-1.51q6,11.39,12.12,22.92,10.11-1.34,20.27-2.29-7.09-13-14.18-25.77A24.05,24.05,0,0,0,117.8,199.4Zm-29,13.54c-3.55.53-7.09,1.11-10.62,1.71V195q5.28-.9,10.57-1.71c6.42-1,10.6,2.36,10.6,8.36S95.42,211.94,88.8,212.94Z"></path><path class="cls-1" d="M164,171.63c-21.46.36-35.17,15.9-35.17,38.76S142.45,246.26,164,245.9s35.14-13.58,35.14-36.58C199.15,186.47,185.42,171.34,164,171.63Zm0,59.43c-10.14.16-16.71-8.18-16.71-21.81S154,186.64,164,186.48s16.66,8.69,16.66,22.26S174,230.91,164,231.06Z"></path><path class="cls-1" d="M256.56,219.49Q241.83,197.43,227,176.14q-7.22-.7-14.45-1.22v70.45q8.58.63,17.16,1.51v-40l.93.09q14.85,21.58,29.62,43.95,7.13,1.14,14.22,2.46V182.88q-8.49-1.59-17-2.9v39.65Z"></path><path class="cls-1" d="M287.23,185.39V199.8q10.13,2.13,20.17,4.63v56.05q8.85,2.2,17.63,4.7V209.13Q335,212,345,215.2V200.79A559.87,559.87,0,0,0,287.23,185.39Z"></path><polygon class="cls-1" points="156.87 331.36 145.94 342.94 156.87 342.94 156.87 331.36"></polygon><polygon class="cls-1" points="159.36 340.38 168.54 330.65 159.36 330.65 159.36 340.38"></polygon><polygon class="cls-1" points="171.71 330.64 160.25 342.94 183.11 342.94 171.71 330.64"></polygon><polygon class="cls-1" points="159.92 345.42 171.71 369.41 183.43 345.42 159.92 345.42"></polygon><polygon class="cls-1" points="146.01 345.42 167.93 366.91 157.05 345.42 146.01 345.42"></polygon><polygon class="cls-1" points="186.54 342.94 197.47 342.94 186.54 331.36 186.54 342.94"></polygon><polygon class="cls-1" points="184.06 330.65 174.88 330.65 184.06 340.38 184.06 330.65"></polygon><polygon class="cls-1" points="175.49 366.91 197.41 345.42 186.36 345.42 175.49 366.91"></polygon></g></g></svg>
